<svg xmlns="http://www.w3.org/2000/svg" viewBox="0 0 512 512" width="512" height="512">
  <rect width="512" height="512" rx="64" fill="#FFF8F0"/>
  <g transform="translate(256, 256)">
    <!-- Open book -->
    <path d="M-128 -54 C-128 -54 -64 -75 0 -54 C64 -75 128 -54 128 -54 L128 86 C128 86 64 64 0 86 C-64 64 -128 86 -128 86 Z" fill="#F5A623" opacity="0.9"/>
    <!-- Book spine -->
    <line x1="0" y1="-54" x2="0" y2="86" stroke="#FFF8F0" stroke-width="5"/>
    <!-- Page lines left -->
    <line x1="-96" y1="-27" x2="-22" y2="-38" stroke="#FFF8F0" stroke-width="5" stroke-linecap="round"/>
    <line x1="-96" y1="0" x2="-22" y2="-11" stroke="#FFF8F0" stroke-width="5" stroke-linecap="round"/>
    <line x1="-96" y1="27" x2="-22" y2="16" stroke="#FFF8F0" stroke-width="5" stroke-linecap="round"/>
    <!-- Page lines right -->
    <line x1="96" y1="-27" x2="22" y2="-38" stroke="#FFF8F0" stroke-width="5" stroke-linecap="round"/>
    <line x1="96" y1="0" x2="22" y2="-11" stroke="#FFF8F0" stroke-width="5" stroke-linecap="round"/>
    <line x1="96" y1="27" x2="22" y2="16" stroke="#FFF8F0" stroke-width="5" stroke-linecap="round"/>
    <!-- Sound waves -->
    <path d="M-150 -96 C-171 -75 -171 -32 -150 -11" fill="none" stroke="#F5A623" stroke-width="8" stroke-linecap="round"/>
    <path d="M150 -96 C171 -75 171 -32 150 -11" fill="none" stroke="#F5A623" stroke-width="8" stroke-linecap="round"/>
  </g>
</svg>
