<svg xmlns="http://www.w3.org/2000/svg" viewBox="0 0 192 192" width="192" height="192">
  <rect width="192" height="192" rx="24" fill="#FFF8F0"/>
  <g transform="translate(96, 96)">
    <!-- Open book -->
    <path d="M-48 -20 C-48 -20 -24 -28 0 -20 C24 -28 48 -20 48 -20 L48 32 C48 32 24 24 0 32 C-24 24 -48 32 -48 32 Z" fill="#F5A623" opacity="0.9"/>
    <!-- Book spine -->
    <line x1="0" y1="-20" x2="0" y2="32" stroke="#FFF8F0" stroke-width="2"/>
    <!-- Page lines left -->
    <line x1="-36" y1="-10" x2="-8" y2="-14" stroke="#FFF8F0" stroke-width="2" stroke-linecap="round"/>
    <line x1="-36" y1="0" x2="-8" y2="-4" stroke="#FFF8F0" stroke-width="2" stroke-linecap="round"/>
    <line x1="-36" y1="10" x2="-8" y2="6" stroke="#FFF8F0" stroke-width="2" stroke-linecap="round"/>
    <!-- Page lines right -->
    <line x1="36" y1="-10" x2="8" y2="-14" stroke="#FFF8F0" stroke-width="2" stroke-linecap="round"/>
    <line x1="36" y1="0" x2="8" y2="-4" stroke="#FFF8F0" stroke-width="2" stroke-linecap="round"/>
    <line x1="36" y1="10" x2="8" y2="6" stroke="#FFF8F0" stroke-width="2" stroke-linecap="round"/>
    <!-- Sound waves -->
    <path d="M-56 -36 C-64 -28 -64 -12 -56 -4" fill="none" stroke="#F5A623" stroke-width="3" stroke-linecap="round"/>
    <path d="M56 -36 C64 -28 64 -12 56 -4" fill="none" stroke="#F5A623" stroke-width="3" stroke-linecap="round"/>
  </g>
</svg>
